<svg xmlns="http://www.w3.org/2000/svg" width="1683" height="562" viewBox="0 0 1683 562">
  <path fill="#FFFFFF" d="M346.772751,260.957799 L465.583388,260.957799 C467.394577,260.957799 468.303461,261.657087 468.303461,263.049904 C468.303461,263.189762 465.302086,269.887294 459.306739,283.138388 L459.310851,283.138388 C458.611709,284.953246 457.007796,285.859852 454.490885,285.859852 L336.434605,285.859852 C336.192522,285.859852 335.957202,285.853631 335.728536,285.841386 L334.613546,288.373998 C329.174222,300.373778 326.454149,309.162593 326.454149,314.741265 C326.454149,322.83326 331.266713,326.877612 340.890195,326.877612 L436.088647,326.877612 C438.040487,326.877612 439.017641,327.505325 439.017641,328.760753 C438.87699,329.042113 438.80872,329.321006 438.80872,329.599076 L430.230661,348.85006 L430.237241,348.847592 C429.39827,350.657513 427.654528,351.562474 424.997789,351.570701 L283.359864,351.570701 C270.666738,351.570701 260.62377,348.432132 253.232606,342.15335 C245.420312,335.320073 241.516633,325.693758 241.516633,313.275228 C241.516633,302.811413 244.236706,291.652424 249.67603,279.793324 C258.741844,259.704017 271.712983,243.035462 288.591091,229.779432 C307.003199,215.272088 326.597267,208.015948 347.382345,208.015948 L489.02027,208.015948 C490.831458,208.015948 491.740343,208.644484 491.740343,209.899912 C491.740343,210.182095 491.667961,210.459342 491.5306,210.737412 L482.95254,230.199005 C482.252576,231.87236 480.578748,232.70986 477.931879,232.70986 L382.733427,232.70986 C372.82782,232.70986 364.740805,235.989109 358.464155,242.545138 C354.769877,246.240188 350.872742,252.378426 346.772751,260.957799 Z M1083.24061,260.957799 L1202.01012,260.957799 C1203.82131,260.957799 1204.73019,261.657087 1204.73019,263.049904 C1204.73019,263.189762 1201.72882,269.887294 1195.73347,283.138388 L1195.77871,283.138388 C1195.12069,284.953246 1193.47565,285.859852 1190.92584,285.859852 L1072.18826,285.859852 L1071.0814,288.373998 C1065.64126,300.373778 1062.92118,309.162593 1062.92118,314.741265 C1062.92118,322.83326 1067.73375,326.877612 1077.35805,326.877612 L1172.5565,326.877612 C1174.50834,326.877612 1175.4855,327.505325 1175.4855,328.760753 C1175.34485,329.042113 1175.27658,329.321006 1175.27658,329.599076 L1166.69852,348.85006 L1166.81285,348.847592 C1165.99033,350.657513 1164.18078,351.562474 1161.46647,351.570701 L1019.82854,351.570701 C1007.13459,351.570701 997.091626,348.432132 989.701285,342.15335 C981.888169,335.320073 977.985312,325.693758 977.985312,313.275228 C977.985312,302.811413 980.705385,291.652424 986.143887,279.793324 C995.209701,259.704017 1008.18166,243.035462 1025.05895,229.779432 C1043.47106,215.272088 1063.06512,208.015948 1083.8502,208.015948 L1225.48813,208.015948 C1227.29932,208.015948 1228.2082,208.644484 1228.2082,209.899912 C1228.2082,210.182095 1228.13582,210.459342 1227.99928,210.737412 L1219.4204,230.199005 C1218.72126,231.87236 1217.04743,232.70986 1214.39974,232.70986 L1119.20128,232.70986 C1109.2965,232.70986 1101.20866,235.989109 1094.93201,242.545138 C1091.23773,246.240188 1087.3406,252.378426 1083.24061,260.957799 Z M1663.74729,348.430487 L1663.5762,348.432132 C1663.5762,350.521769 1661.93116,351.566587 1658.72333,351.566587 L1564.98897,351.566587 C1563.7338,351.566587 1562.8973,351.220234 1562.47864,350.520124 L1502.85088,258.444477 L1399.49303,326.872675 L1556.67658,326.707314 C1566.38067,326.707314 1559.87207,351.290163 1569.52516,351.290163 L1338.82479,351.566587 C1336.59247,351.566587 1335.47795,351.010448 1335.47795,349.89241 C1335.47795,349.05491 1336.2429,348.149126 1337.77936,347.171769 L1549.09295,209.058298 C1550.06599,208.362301 1551.25371,208.011834 1552.64952,208.011834 L1574.82631,208.011834 C1576.08229,208.011834 1576.98789,208.362301 1577.5472,209.058298 C1635.01255,301.555163 1663.74729,348.011737 1663.74729,348.430487 Z M1435.49802,232.706569 L1435.40836,232.708214 L1375.0354,232.708214 L1323.35812,348.847592 C1322.5208,350.662449 1320.91606,351.569055 1318.54474,351.569055 L1242.80875,351.569055 C1241.13492,351.569055 1240.2976,350.940519 1240.2976,349.685092 C1240.2976,349.405377 1257.59025,310.415552 1292.1838,232.706569 L1233.81203,232.706569 C1231.8569,232.706569 1230.88139,232.078855 1230.88139,230.823428 C1230.88139,230.686038 1233.81203,223.989328 1239.66919,210.734121 C1240.50569,208.922554 1242.17952,208.01348 1244.69068,208.01348 L1446.58641,208.01348 C1448.39677,208.01348 1449.30648,208.642016 1449.30648,209.897444 C1449.30648,210.178804 1446.37666,216.943797 1440.51868,230.195714 C1439.68218,231.869069 1438.00835,232.706569 1435.49802,232.706569 Z M934.665657,339.010668 L934.610548,339.006554 C921.943742,347.381555 908.947928,351.560829 895.705358,351.569055 L715.779132,351.569055 C713.965476,351.569055 713.059881,350.940519 713.059881,349.685092 C713.059881,349.405377 733.631926,303.087838 774.779306,210.732476 C775.475158,208.920909 777.148986,208.011834 779.799968,208.011834 L959.561689,208.011834 C968.48603,208.011834 975.949575,209.757586 981.948213,213.24333 C989.062187,217.569043 992.618763,223.915286 992.618763,232.286174 C992.618763,241.074988 988.780886,249.586556 981.11171,257.81594 C974.69441,264.51265 966.812202,270.025507 957.470021,274.347928 C962.909345,279.092391 965.629418,285.229671 965.629418,292.763058 C965.629418,297.648201 964.374253,302.8073 961.8631,308.248582 C956.423776,320.385752 947.355494,330.63978 934.665657,339.010668 Z M905.383949,246.729348 L905.439058,246.727702 C906.097074,245.052702 906.426082,243.520028 906.426082,242.128033 C906.426082,235.849251 901.195678,232.710682 890.73487,232.710682 L847.84457,232.710682 L806.000516,326.875966 L848.894928,326.875966 C856.286915,326.875966 863.258593,323.773596 869.817367,317.56392 C876.372028,311.358357 879.650592,304.557165 879.650592,297.161167 C879.650592,289.628603 875.466433,285.861498 867.096471,285.861498 L820.905399,285.861498 C803.842224,285.861498 816.858601,260.959445 826.696762,260.959445 L878.185684,260.959445 C883.625008,260.959445 888.856235,259.775592 893.877718,257.402126 C899.454403,254.753059 903.292281,251.195741 905.383949,246.729348 Z M701.579971,348.85006 L701.579149,348.845124 C700.880007,350.655045 699.210292,351.560006 696.570003,351.568233 L663.095088,351.568233 C659.884793,351.568233 655.699812,350.521769 650.54179,348.429664 L507.225925,290.882385 L481.491745,348.847592 C480.655242,350.662449 478.981414,351.569055 476.471084,351.569055 L447.598991,351.569055 C445.643861,351.569055 444.669997,350.940519 444.669997,349.685092 C444.669997,349.407022 444.738266,349.128952 444.878917,348.847592 L506.389422,210.734121 C507.225925,208.922554 508.89893,208.01348 511.410083,208.01348 L543.629832,208.01348 C546.278346,208.01348 549.834922,208.922554 554.300383,210.734121 L700.330564,269.747437 L726.691504,210.735766 C727.388178,208.924199 729.062006,208.015125 731.712988,208.015125 L760.585903,208.015125 C762.397092,208.015125 763.305154,208.643661 763.305154,209.899089 C763.305154,210.181272 763.233595,210.458519 763.096234,210.736589 L701.579971,348.85006 Z M205.732083,348.85006 L205.730437,348.847592 C204.899692,350.657513 203.221752,351.562474 200.713066,351.570701 L51.7464894,351.570701 C39.0533625,351.570701 29.0103946,348.432132 21.6192309,342.15335 C13.806937,335.320073 9.90325765,325.693758 9.90325765,313.275228 C9.90325765,302.811413 12.6233309,291.652424 18.0626549,279.793324 C27.2682975,259.704017 40.2394361,243.035462 56.9777158,229.779432 C75.389001,215.272088 94.9830698,208.015948 115.768147,208.015948 L249.674385,208.015948 C251.626225,208.015948 252.603378,208.644484 252.603378,209.899912 C252.603378,210.182095 252.531819,210.459342 252.394458,210.737412 L243.816398,230.199005 C242.979073,231.87236 241.306068,232.70986 238.795737,232.70986 L151.131567,232.70986 C141.22596,232.70986 133.138122,235.989109 126.862296,242.545138 C122.536663,246.870851 117.933842,254.544918 113.053009,265.56405 L103.010864,288.373998 C97.5715398,300.373778 94.8514666,309.162593 94.8514666,314.741265 C94.8514666,322.83326 99.6640304,326.877612 109.287513,326.877612 L132.720282,326.877612 L162.638621,259.495054 C163.475123,257.684309 165.148129,256.775235 167.659282,256.775235 L242.763573,256.775235 C244.715413,256.775235 245.692566,257.402949 245.692566,258.658376 C245.692566,258.938092 232.371857,289.000889 205.732083,348.85006 Z" transform="translate(5 4)"/>
</svg>
